<svg width="18" height="18" viewBox="0 0 18 18" fill="none" xmlns="http://www.w3.org/2000/svg">
<path d="M10.2249 0.668091C9.88332 0.668091 9.60004 0.951371 9.60004 1.29297V7.77529C9.60004 8.11689 9.88332 8.40017 10.2249 8.40017H16.7072C17.0488 8.40017 17.3321 8.11689 17.3321 7.77529C17.3321 3.85925 14.141 0.668091 10.2249 0.668091ZM10.8498 7.15037V1.95121C13.5827 2.24281 15.7657 4.41749 16.049 7.15041H10.8498L10.8498 7.15037Z" fill="white"/>
<path d="M14.2659 9.60002H8.40853V3.73422C8.40853 3.39262 8.12521 3.10934 7.78361 3.10934C3.85921 3.10934 0.668091 6.3005 0.668091 10.2249C0.668091 14.1409 3.85925 17.3321 7.77529 17.3321C11.6997 17.3321 14.8825 14.1409 14.8825 10.2249C14.8908 9.87491 14.6075 9.59994 14.2659 9.59994V9.60002ZM7.77529 16.0823C4.54249 16.0823 1.91789 13.4493 1.91789 10.2249C1.91789 7.20866 4.21749 4.70906 7.15037 4.40078V10.2249C7.15037 10.5665 7.43369 10.8497 7.77529 10.8497H13.5994C13.2911 13.7826 10.7998 16.0823 7.77529 16.0823Z" fill="white"/>
</svg>
