<svg width="14" height="18" viewBox="0 0 14 18" fill="none" xmlns="http://www.w3.org/2000/svg">
<path d="M11.6292 16.59C10.7308 17.4608 9.74999 17.3233 8.80582 16.9108C7.80665 16.4892 6.88999 16.4708 5.83582 16.9108C4.51582 17.4792 3.81915 17.3142 3.03082 16.59C-1.44251 11.9792 -0.782512 4.9575 4.29582 4.70083C5.53332 4.765 6.39499 5.37917 7.11915 5.43417C8.20082 5.21417 9.23665 4.58167 10.3917 4.66417C11.7758 4.77417 12.8208 5.32417 13.5083 6.31417C10.6483 8.02833 11.3267 11.7958 13.9483 12.85C13.4258 14.225 12.7475 15.5908 11.62 16.5992L11.6292 16.59ZM7.02749 4.64583C6.88999 2.60167 8.54916 0.915 10.4558 0.75C10.7217 3.115 8.31082 4.875 7.02749 4.64583Z" fill="white"/>
</svg>
