<svg width="34" height="34" viewBox="0 0 34 34" fill="none" xmlns="http://www.w3.org/2000/svg">
<path d="M20.7333 14.6C20.2166 16.6667 16.9999 15.6167 15.9999 15.3333L16.9166 11.7C17.9499 12 21.2666 12.4333 20.7333 14.6ZM15.5499 17.2L14.5499 21.2167C15.7833 21.5333 19.5999 22.75 20.1666 20.4833C20.7666 18.1167 16.7833 17.5 15.5499 17.2ZM33.1666 21.0333C30.9333 29.9667 21.8999 35.4 12.9666 33.1667C4.03325 30.9333 -1.39508 21.9 0.833254 12.9667C1.36266 10.8435 2.30514 8.84539 3.60687 7.0865C4.9086 5.32762 6.54408 3.8424 8.41989 2.71567C10.2957 1.58894 12.3751 0.842786 14.5393 0.519812C16.7036 0.196839 18.9102 0.303377 21.0333 0.833342C29.9499 3.06667 35.3833 12.1 33.1666 21.0333ZM20.6833 10.4167L21.4333 7.41667L19.5999 7.00001L18.8666 9.88334C18.3833 9.76667 17.8999 9.65001 17.3999 9.55001L18.1333 6.60001L16.3166 6.16667L15.5666 9.15001C15.1666 9.05001 14.7666 8.96667 14.3999 8.86667L11.8833 8.23334L11.3833 10.1833C11.3833 10.1833 12.7499 10.5 12.7166 10.5167C13.4666 10.7 13.5999 11.1667 13.5666 11.5833L11.5166 19.8C11.4333 20.0333 11.1666 20.3333 10.6833 20.25C10.6999 20.2667 9.34992 19.9167 9.34992 19.9167L8.44992 22L10.8166 22.6C11.2666 22.7167 11.6999 22.8333 12.1333 22.9333L11.3666 25.9667L13.1999 26.4333L13.9499 23.4167C14.4499 23.55 14.9333 23.6667 15.3999 23.8L14.6499 26.7833L16.4833 27.25L17.2499 24.2167C20.3333 24.8 22.6999 24.5667 23.6666 21.75C24.4999 19.5 23.6666 18.1667 21.9999 17.3167C23.1999 17 24.0999 16.25 24.3499 14.6167C24.6833 12.4 22.9833 11.2167 20.6833 10.4167Z" fill="#E6D4A6"/>
</svg>
