<svg width="40" height="40" viewBox="0 0 40 40" fill="none" xmlns="http://www.w3.org/2000/svg">
<path d="M27.7067 23.2L32.2367 27.7267L19.9817 39.9817L7.72667 27.7283L12.255 23.2L19.9817 30.9667L27.7067 23.2ZM35.435 15.4733L40 20L35.475 24.5267L30.9467 20L35.435 15.4733ZM19.9817 15.4733L24.5083 19.96L19.98 24.4883L15.4533 20L19.9817 15.4733ZM4.52667 15.4733L9.01667 20L4.53 24.4867L0 20L4.52667 15.4733ZM19.9833 0.019989L32.2333 12.2333L27.705 16.7583L19.9833 9.03332L12.2567 16.8L7.72833 12.2733L19.9833 0.019989Z" fill="#B4C7ED"/>
</svg>
