<svg width="15" height="18" viewBox="0 0 15 18" fill="none" xmlns="http://www.w3.org/2000/svg">
<path d="M15 6.44984C14.9913 6.37328 14.9746 6.29786 14.95 6.22484V6.14984C14.9099 6.06415 14.8565 5.98539 14.7917 5.9165L9.79167 0.916504C9.72278 0.851684 9.64402 0.798238 9.55833 0.75817C9.53346 0.754637 9.50821 0.754637 9.48333 0.75817C9.39868 0.709622 9.30519 0.678457 9.20833 0.666504H5.83333C5.17029 0.666504 4.53441 0.929896 4.06557 1.39874C3.59673 1.86758 3.33333 2.50346 3.33333 3.1665V3.99984H2.5C1.83696 3.99984 1.20107 4.26323 0.732233 4.73207C0.263392 5.20091 0 5.8368 0 6.49984V14.8332C0 15.4962 0.263392 16.1321 0.732233 16.6009C1.20107 17.0698 1.83696 17.3332 2.5 17.3332H9.16667C9.82971 17.3332 10.4656 17.0698 10.9344 16.6009C11.4033 16.1321 11.6667 15.4962 11.6667 14.8332V13.9998H12.5C13.163 13.9998 13.7989 13.7364 14.2678 13.2676C14.7366 12.7988 15 12.1629 15 11.4998V6.49984C15 6.49984 15 6.49984 15 6.44984ZM10 3.50817L12.1583 5.6665H10.8333C10.6123 5.6665 10.4004 5.57871 10.2441 5.42243C10.0878 5.26615 10 5.05418 10 4.83317V3.50817ZM10 14.8332C10 15.0542 9.9122 15.2661 9.75592 15.4224C9.59964 15.5787 9.38768 15.6665 9.16667 15.6665H2.5C2.27899 15.6665 2.06702 15.5787 1.91074 15.4224C1.75446 15.2661 1.66667 15.0542 1.66667 14.8332V6.49984C1.66667 6.27882 1.75446 6.06686 1.91074 5.91058C2.06702 5.7543 2.27899 5.6665 2.5 5.6665H3.33333V11.4998C3.33333 12.1629 3.59673 12.7988 4.06557 13.2676C4.53441 13.7364 5.17029 13.9998 5.83333 13.9998H10V14.8332ZM13.3333 11.4998C13.3333 11.7209 13.2455 11.9328 13.0893 12.0891C12.933 12.2454 12.721 12.3332 12.5 12.3332H5.83333C5.61232 12.3332 5.40036 12.2454 5.24408 12.0891C5.0878 11.9328 5 11.7209 5 11.4998V3.1665C5 2.94549 5.0878 2.73353 5.24408 2.57725C5.40036 2.42097 5.61232 2.33317 5.83333 2.33317H8.33333V4.83317C8.33333 5.49621 8.59672 6.1321 9.06557 6.60094C9.53441 7.06978 10.1703 7.33317 10.8333 7.33317H13.3333V11.4998Z" fill="#6A12CB"/>
</svg>
