<svg width="16" height="16" viewBox="0 0 16 16" fill="none" xmlns="http://www.w3.org/2000/svg">
<path d="M14.0677 15.5273H1.95826C1.15358 15.5273 0.498901 14.8727 0.498901 14.068V1.95852C0.498901 1.15384 1.15358 0.499161 1.95826 0.499161H14.0677C14.8723 0.499161 15.5271 1.15384 15.5271 1.95852V14.068C15.5271 14.8727 14.8723 15.5273 14.0677 15.5273ZM1.95826 1.75116C1.90329 1.75122 1.85058 1.77309 1.81171 1.81197C1.77283 1.85084 1.75096 1.90354 1.7509 1.95852V14.068C1.75098 14.123 1.77285 14.1757 1.81172 14.2145C1.85059 14.2534 1.90329 14.2753 1.95826 14.2753H14.0677C14.1226 14.2753 14.1753 14.2534 14.2142 14.2145C14.2531 14.1757 14.2749 14.123 14.275 14.068V1.95852C14.275 1.90354 14.2531 1.85084 14.2142 1.81197C14.1753 1.77309 14.1226 1.75122 14.0677 1.75116H1.95826Z" fill="#212121"/>
<path d="M7.99988 10.0837C7.65412 10.0837 7.37388 9.8042 7.37388 9.45848V9.45692C7.37388 8.49536 7.9026 7.59768 8.7882 7.05564C9.371 6.69888 9.63441 6.0298 9.45917 5.351C9.3308 4.8538 8.91048 4.43336 8.41324 4.30488C7.92952 4.17984 7.45416 4.27292 7.07464 4.56684C6.70112 4.85608 6.48696 5.2924 6.48696 5.764C6.48696 6.10972 6.20672 6.39 5.86096 6.39C5.5152 6.39 5.23492 6.10972 5.23492 5.764C5.23492 4.90224 5.62604 4.10512 6.30804 3.57696C6.9906 3.04836 7.872 2.87188 8.72652 3.09268C9.66556 3.33536 10.429 4.09896 10.6714 5.038C10.9825 6.24292 10.4884 7.48292 9.44184 8.12352C8.93092 8.43624 8.62592 8.93468 8.62592 9.45692C8.62592 9.80264 8.34564 10.0837 7.99988 10.0837Z" fill="#212121"/>
<path d="M7.99981 12.9869C7.97301 12.9869 7.94621 12.9852 7.91937 12.9824C7.89257 12.98 7.86577 12.976 7.83981 12.9704C7.81341 12.9652 7.78741 12.9588 7.76181 12.9508C7.73621 12.9432 7.71097 12.934 7.68621 12.924C7.66181 12.9136 7.63741 12.902 7.61381 12.8896C7.59021 12.8768 7.56701 12.8633 7.54461 12.8485C7.52257 12.8337 7.50061 12.8176 7.48021 12.8008C7.45901 12.7836 7.43901 12.7652 7.42021 12.7464C7.38201 12.7085 7.34783 12.6666 7.31821 12.6216C7.30341 12.5996 7.28941 12.5764 7.27701 12.5528C7.26461 12.5292 7.25301 12.5048 7.24257 12.4804C7.2224 12.4308 7.20674 12.3794 7.19577 12.3269C7.19057 12.3005 7.18661 12.2736 7.18381 12.2472C7.18141 12.2204 7.17981 12.1933 7.17981 12.1669C7.17981 12.1401 7.18141 12.1129 7.18381 12.0861C7.18661 12.0597 7.19057 12.0328 7.19577 12.0064C7.20679 11.954 7.22245 11.9026 7.24257 11.8528C7.25301 11.8284 7.26461 11.804 7.27701 11.7804C7.28941 11.7568 7.30341 11.7336 7.31821 11.7116C7.34783 11.6667 7.38201 11.6248 7.42021 11.5869C7.43901 11.5681 7.45901 11.5496 7.48021 11.5328C7.50061 11.5156 7.52257 11.4996 7.54461 11.4848C7.56701 11.47 7.59021 11.4564 7.61381 11.4436C7.63741 11.4312 7.66181 11.4196 7.68621 11.4096C7.71097 11.3992 7.73621 11.39 7.76181 11.3824C7.78741 11.3744 7.81341 11.368 7.83981 11.3628C7.86577 11.3572 7.89257 11.3532 7.91937 11.3508C7.97257 11.3452 8.02701 11.3452 8.08061 11.3508C8.10701 11.3532 8.13381 11.3572 8.16021 11.3628C8.18621 11.368 8.21257 11.3744 8.23777 11.3824C8.26341 11.39 8.28901 11.3992 8.31341 11.4096C8.33821 11.4196 8.36257 11.4312 8.38621 11.4436C8.40981 11.4564 8.43301 11.47 8.45501 11.4848C8.47741 11.4996 8.49897 11.5156 8.51981 11.5328C8.56166 11.5668 8.59987 11.605 8.63381 11.6469C8.66794 11.6882 8.69768 11.733 8.72257 11.7804C8.73537 11.804 8.74701 11.8284 8.75701 11.8528C8.76741 11.8776 8.77621 11.9033 8.78417 11.9285C8.79177 11.9541 8.79861 11.9804 8.80381 12.0064C8.80901 12.0328 8.81301 12.0597 8.81577 12.0861C8.81857 12.1129 8.81981 12.1401 8.81981 12.1669C8.81981 12.1933 8.81857 12.2204 8.81577 12.2472C8.81298 12.274 8.80899 12.3005 8.80381 12.3269C8.79861 12.3529 8.79177 12.3792 8.78417 12.4048C8.77621 12.43 8.76741 12.4556 8.75701 12.4804C8.74701 12.5048 8.73537 12.5292 8.72257 12.5528C8.69768 12.6003 8.66794 12.6451 8.63381 12.6864C8.61701 12.7072 8.59861 12.7276 8.57981 12.7464C8.56097 12.7652 8.54061 12.7836 8.51981 12.8008C8.47817 12.8346 8.43344 12.8643 8.38621 12.8896C8.36257 12.902 8.33821 12.9136 8.31341 12.924C8.28901 12.934 8.26341 12.9432 8.23777 12.9508C8.21257 12.9588 8.18621 12.9652 8.16021 12.9704C8.13381 12.976 8.10701 12.98 8.08061 12.9824C8.05381 12.9852 8.02661 12.9869 7.99981 12.9869Z" fill="#212121"/>
</svg>
