<svg width="16" height="16" viewBox="0 0 16 16" fill="none" xmlns="http://www.w3.org/2000/svg">
<path fill-rule="evenodd" clip-rule="evenodd" d="M8.00004 2.58328C6.98244 2.58351 5.98547 2.87038 5.12337 3.41104C4.26127 3.95169 3.5689 4.72426 3.12559 5.64023C2.68228 6.5562 2.50596 7.57852 2.61682 8.59007C2.72769 9.60162 3.12125 10.5615 3.75244 11.3597C4.38362 12.1579 5.22688 12.7622 6.18562 13.1033C7.14436 13.4444 8.1798 13.5085 9.1733 13.2883C10.1668 13.0681 11.0782 12.5725 11.803 11.8583C12.5279 11.1441 13.0369 10.2401 13.2717 9.24995H8.83338C8.50186 9.24995 8.18391 9.11825 7.94949 8.88383C7.71507 8.64941 7.58338 8.33147 7.58338 7.99995C7.58338 7.66843 7.71507 7.35049 7.94949 7.11607C8.18391 6.88164 8.50186 6.74995 8.83338 6.74995H14.6667C14.9982 6.74995 15.3162 6.88164 15.5506 7.11607C15.785 7.35049 15.9167 7.66843 15.9167 7.99995C15.9167 9.83057 15.2823 11.6046 14.1214 13.0201C12.9606 14.4356 11.345 15.405 9.54984 15.7634C7.75463 16.1218 5.89071 15.8469 4.27535 14.9856C2.65999 14.1244 1.39304 12.7299 0.690169 11.0396C-0.0127062 9.34925 -0.108065 7.46758 0.420325 5.71487C0.948715 3.96216 2.06819 2.44673 3.5882 1.42655C5.10821 0.406373 6.9348 -0.0555061 8.75704 0.119539C10.5793 0.294585 12.2845 1.09573 13.5825 2.38662C13.6989 2.5024 13.7914 2.63997 13.8546 2.79148C13.9178 2.94298 13.9506 3.10546 13.951 3.26962C13.9514 3.43379 13.9195 3.59643 13.8571 3.74827C13.7946 3.9001 13.7029 4.03815 13.5871 4.15453C13.4713 4.27092 13.3338 4.36336 13.1823 4.42657C13.0308 4.48979 12.8683 4.52255 12.7041 4.52297C12.3726 4.52383 12.0543 4.39295 11.8192 4.15912C11.3173 3.65845 10.7217 3.26158 10.0664 2.99119C9.41111 2.7208 8.70894 2.58219 8.00004 2.58328Z" fill="white"/>
</svg>
