<svg width="16" height="15" viewBox="0 0 16 15" fill="none" xmlns="http://www.w3.org/2000/svg">
<path d="M4.04238 14.4989H1.1261C0.784501 14.4989 0.501221 14.2156 0.501221 13.874V7.62495C0.501221 7.27503 0.784501 7.00007 1.1261 7.00007H4.0423C4.3839 7.00007 4.66722 7.27503 4.66722 7.62495V13.874C4.66722 14.2156 4.38394 14.4989 4.0423 14.4989L4.04238 14.4989ZM1.75106 13.2491H3.41746V8.24987H1.75106V13.2491ZM14.874 14.4989H11.9577C11.6161 14.4989 11.3329 14.2156 11.3329 13.874V4.29215C11.3329 3.95055 11.6161 3.66727 11.9577 3.66727H14.8739C15.2155 3.66727 15.4989 3.95055 15.4989 4.29215V13.874C15.4989 14.2156 15.2156 14.4989 14.8739 14.4989L14.874 14.4989ZM12.5827 13.2491H14.2491V4.91707H12.5827V13.2491ZM9.45814 14.4989H6.54198C6.20038 14.4989 5.9171 14.2156 5.9171 13.874V0.959353C5.9171 0.617753 6.20038 0.334473 6.54198 0.334473H9.45818C9.79978 0.334473 10.0831 0.617753 10.0831 0.959353V13.874C10.0831 14.2156 9.79982 14.4989 9.45818 14.4989L9.45814 14.4989ZM7.16686 13.2491H8.83326V1.58427H7.16686V13.2491Z" fill="#212121"/>
</svg>
