<svg width="16" height="20" viewBox="0 0 16 20" fill="none" xmlns="http://www.w3.org/2000/svg">
<path d="M5.00126 15.0873L5.00031 16.999C5.00031 18.6487 6.35006 19.9985 7.99982 19.9985C9.64954 19.9985 10.9993 18.6487 10.9993 16.999L11.0003 15.0873H5.00126ZM9.49954 16.999C9.49954 17.8288 8.82965 18.4987 7.99978 18.4987C7.1699 18.4987 6.50002 17.8288 6.50002 16.999L6.50103 15.5432H9.50054L9.49958 16.999H9.49954Z" fill="#212121"/>
<path d="M14.1288 11.3399C14.0488 11.1599 13.9988 10.9699 13.9988 10.78V8.00043C13.9988 4.95089 11.7092 2.42134 8.74969 2.0514V0.751565C8.74969 0.341645 8.40975 0.00170898 7.99979 0.00170898C7.58987 0.00170898 7.24993 0.341645 7.24993 0.751565V2.0514C4.29039 2.42134 2.00075 4.95089 2.00075 8.00043V10.78C2.00075 10.9699 1.95078 11.1699 1.87076 11.3399L0.0810822 14.9193C-0.0389178 15.1493 -0.0189018 15.4292 0.111082 15.6492C0.25105 15.8692 0.491002 15.9991 0.750922 15.9991H15.2487C15.5086 15.9991 15.7486 15.8692 15.8885 15.6392C16.0285 15.4193 16.0385 15.1393 15.9185 14.9093L14.1288 11.3399ZM1.96081 14.4994L3.21059 12.0098C3.40147 11.628 3.50074 11.2069 3.50051 10.78V8.00043C3.50051 5.52084 5.5202 3.50115 7.99979 3.50115C10.4794 3.50115 12.4991 5.52084 12.4991 8.00043V10.78C12.4991 11.1999 12.5991 11.6299 12.789 12.0098L14.0389 14.4994H1.96081Z" fill="#212121"/>
</svg>
