<svg width="18" height="17" viewBox="0 0 18 17" fill="none" xmlns="http://www.w3.org/2000/svg">
<path d="M14.4168 5.91744H12.6225C11.4287 5.91744 10.4574 4.9462 10.4574 3.7524V2.6638C10.4574 1.46996 11.4287 0.498718 12.6225 0.498718H12.8778C14.0716 0.498718 15.0428 1.46996 15.0428 2.6638V5.29144C15.0428 5.63716 14.7626 5.91744 14.4168 5.91744ZM12.6225 1.75072C12.119 1.75072 11.7095 2.16036 11.7095 2.6638V3.7524C11.7095 4.25584 12.119 4.66544 12.6225 4.66544H13.7908V2.6638C13.7908 2.16036 13.3812 1.75072 12.8778 1.75072H12.6225ZM6.70843 5.91744H4.91415C3.72031 5.91744 2.74907 4.9462 2.74907 3.7524V2.6638C2.74907 1.46996 3.72031 0.498718 4.91415 0.498718H5.16939C6.36319 0.498718 7.33443 1.46996 7.33443 2.6638V5.29144C7.33443 5.63716 7.05419 5.91744 6.70843 5.91744ZM4.91415 1.75072C4.41067 1.75072 4.00107 2.16036 4.00107 2.6638V3.7524C4.00107 4.25584 4.41067 4.66544 4.91415 4.66544H6.08243V2.6638C6.08243 2.16036 5.67283 1.75072 5.16939 1.75072H4.91415ZM10.6668 11.3341H8.87251C7.67867 11.3341 6.70743 10.3629 6.70743 9.16912V8.08052C6.70743 6.88668 7.67867 5.91548 8.87251 5.91548H9.12775C10.3216 5.91548 11.2928 6.88668 11.2928 8.08052V10.7081C11.2928 11.0538 11.0126 11.3341 10.6668 11.3341ZM8.87251 7.16744C8.36903 7.16744 7.95943 7.57708 7.95943 8.08052V9.16912C7.95943 9.67256 8.36903 10.0822 8.87251 10.0822H10.0408V8.08052C10.0408 7.57708 9.63119 7.16744 9.12775 7.16744H8.87251ZM13.3751 16.3341H4.62515C4.27939 16.3341 3.99915 16.0538 3.99915 15.7081V15.2913C3.99915 13.5676 5.40147 12.1653 7.12515 12.1653H10.8751C12.5988 12.1653 14.0011 13.5676 14.0011 15.2913V15.7081C14.0011 16.0538 13.7209 16.3341 13.3751 16.3341ZM5.26275 15.0821H12.7375C12.6332 14.1468 11.8377 13.4173 10.8751 13.4173H7.12515C6.16255 13.4173 5.36707 14.1468 5.26275 15.0821ZM5.04175 10.9175H1.29175C0.94599 10.9175 0.66571 10.6372 0.66571 10.2915V9.87484C0.66571 8.15116 2.06803 6.74884 3.79175 6.74884H5.04175C5.38751 6.74884 5.66779 7.02912 5.66779 7.37484C5.66779 7.72056 5.38751 8.0008 5.04175 8.0008H3.79175C2.82919 8.0008 2.03375 8.73036 1.92935 9.66552H5.04175C5.38751 9.66552 5.66779 9.94576 5.66779 10.2915C5.66779 10.6372 5.38751 10.9175 5.04175 10.9175ZM16.7085 10.9174H12.9585C12.6127 10.9174 12.3324 10.6371 12.3324 10.2914C12.3324 9.94564 12.6127 9.6654 12.9585 9.6654H16.0709C15.9665 8.73024 15.171 8.00068 14.2085 8.00068H12.9585C12.6127 8.00068 12.3324 7.72044 12.3324 7.37472C12.3324 7.029 12.6127 6.74872 12.9585 6.74872H14.2085C15.9321 6.74872 17.3345 8.15104 17.3345 9.87472V10.2914C17.3345 10.6371 17.0542 10.9174 16.7085 10.9174Z" fill="#212121"/>
</svg>
