<svg width="16" height="20" viewBox="0 0 16 20" fill="none" xmlns="http://www.w3.org/2000/svg">
<path d="M12.5834 7.25016V5.41683C12.5834 2.85016 10.5667 0.833496 8.00008 0.833496C5.43341 0.833496 3.41675 2.85016 3.41675 5.41683V7.25016C1.85841 7.25016 0.666748 8.44183 0.666748 10.0002V16.4168C0.666748 17.9752 1.85841 19.1668 3.41675 19.1668H12.5834C14.1417 19.1668 15.3334 17.9752 15.3334 16.4168V10.0002C15.3334 8.44183 14.1417 7.25016 12.5834 7.25016ZM5.25008 5.41683C5.25008 3.8585 6.44175 2.66683 8.00008 2.66683C9.55842 2.66683 10.7501 3.8585 10.7501 5.41683V7.25016H5.25008V5.41683Z" fill="#DADADA"/>
</svg>
