<svg width="16" height="16" viewBox="0 0 16 16" fill="none" xmlns="http://www.w3.org/2000/svg">
<path d="M14.8765 14.2839L1.1265 14.2492C0.780943 14.2491 0.499783 14.5278 0.498903 14.8736C0.498063 15.2193 0.777583 15.5003 1.12334 15.5012L14.8733 15.5359H14.8749C15.2199 15.5359 15.5 15.2566 15.5009 14.9115C15.5017 14.5658 15.2222 14.2848 14.8765 14.2839ZM14.8749 11.7492H1.1249C0.779143 11.7492 0.498903 12.0294 0.498903 12.3752C0.498903 12.7209 0.779143 13.0012 1.1249 13.0012H14.8749C15.2207 13.0012 15.5009 12.7209 15.5009 12.3752C15.5009 12.0294 15.2207 11.7492 14.8749 11.7492ZM7.9999 2.99892C6.62082 2.99892 5.4989 4.12084 5.4989 5.49992C5.4989 6.879 6.62082 8.00092 7.9999 8.00092C9.37898 8.00092 10.5009 6.879 10.5009 5.49992C10.5009 4.12084 9.37898 2.99892 7.9999 2.99892ZM7.9999 6.74892C7.31118 6.74892 6.7509 6.18864 6.7509 5.49992C6.7509 4.81124 7.31118 4.25092 7.9999 4.25092C8.68862 4.25092 9.2489 4.81124 9.2489 5.49992C9.2489 6.18864 8.68862 6.74892 7.9999 6.74892Z" fill="#212121"/>
<path d="M14.875 0.498917H13.625L13.6246 0.498957H2.37536L2.37496 0.498917H1.12496C0.779202 0.498917 0.498962 0.779197 0.498962 1.12492V9.87492C0.498962 10.2206 0.779202 10.5009 1.12496 10.5009H14.875C15.2207 10.5009 15.501 10.2206 15.501 9.87492V1.12492C15.501 0.779197 15.2207 0.498917 14.875 0.498917ZM2.93796 9.24892C2.7778 8.67492 2.32496 8.22212 1.75096 8.06192V2.89312C2.28252 2.70436 2.7044 2.28248 2.89316 1.75092H13.062C13.2221 2.32492 13.675 2.77776 14.249 2.93792V8.06192C13.675 8.22208 13.2221 8.67492 13.062 9.24892H2.93796Z" fill="#212121"/>
</svg>
