<svg width="18" height="11" viewBox="0 0 18 11" fill="none" xmlns="http://www.w3.org/2000/svg">
<path d="M17.2114 0.382161C17.2178 0.390721 17.2243 0.399161 17.2302 0.408081C17.236 0.416801 17.2411 0.425801 17.2464 0.434761C17.2515 0.443361 17.2567 0.451841 17.2615 0.460721C17.2663 0.469841 17.2705 0.479201 17.2748 0.488481C17.2791 0.497721 17.2836 0.506921 17.2875 0.516401C17.2912 0.525521 17.2943 0.534801 17.2976 0.544081C17.3012 0.554121 17.3049 0.564081 17.3079 0.574321C17.3107 0.583601 17.3128 0.592961 17.3151 0.602321C17.3177 0.612761 17.3205 0.623121 17.3225 0.633761C17.3245 0.643881 17.3258 0.654121 17.3272 0.664321C17.3287 0.674321 17.3303 0.684161 17.3313 0.694281C17.3324 0.706601 17.3327 0.718961 17.3331 0.731321C17.3334 0.738721 17.3343 0.745961 17.3343 0.753441V5.3368C17.3343 5.68252 17.054 5.9628 16.7083 5.9628C16.3625 5.9628 16.0822 5.68252 16.0822 5.3368V2.24772L10.2039 8.0322C9.96025 8.272 9.56921 8.27192 9.32565 8.03208L6.82073 5.5658L1.73057 10.5747C1.48413 10.8172 1.08781 10.8139 0.845333 10.5676C0.602853 10.3211 0.606013 9.92476 0.852453 9.68228L6.38181 4.2412C6.62545 4.0014 7.01649 4.00144 7.26005 4.24132L9.76497 6.7076L15.1796 1.37944H12.1249C11.7791 1.37944 11.4989 1.09916 11.4989 0.753441C11.4989 0.407721 11.7791 0.127441 12.1249 0.127441H16.7083L16.7091 0.127481C16.7295 0.127521 16.7499 0.128562 16.7703 0.130562C16.7804 0.131562 16.7903 0.133481 16.8003 0.134961C16.8106 0.136481 16.8209 0.137601 16.8311 0.139641C16.8425 0.141921 16.8535 0.145081 16.8647 0.147961C16.8734 0.150201 16.8822 0.152041 16.8908 0.154641C16.9016 0.157921 16.9121 0.162081 16.9226 0.165921C16.9314 0.169121 16.9403 0.171921 16.9489 0.175521C16.9586 0.179561 16.9678 0.184321 16.9773 0.188841C16.9864 0.193201 16.9957 0.197241 17.0047 0.202081C17.0137 0.206881 17.0221 0.212441 17.0307 0.217641C17.0397 0.223041 17.0488 0.228001 17.0575 0.233881C17.0711 0.243041 17.0841 0.253041 17.0969 0.263201C17.1031 0.268161 17.1093 0.273201 17.1153 0.278441C17.1281 0.289441 17.1407 0.300681 17.1526 0.312641L17.1545 0.314361C17.1595 0.319481 17.1638 0.325041 17.1686 0.330281C17.1772 0.339601 17.1859 0.348881 17.1939 0.358721C17.2001 0.366361 17.2056 0.374321 17.2114 0.382161Z" fill="#212121"/>
</svg>
