<svg width="24" height="24" viewBox="0 0 24 24" fill="none" xmlns="http://www.w3.org/2000/svg">
<g clip-path="url(#clip0_2086_6349)">
<path d="M18.7541 10.518C18.7541 11.143 16.5161 11.666 13.5161 11.798L13.5181 11.799C13.0186 11.826 12.5184 11.837 12.0181 11.832C11.2391 11.832 10.6881 11.809 10.4941 11.8C7.48813 11.667 5.24413 11.144 5.24413 10.518C5.24413 9.89199 7.48813 9.36799 10.4941 9.23399V11.278C10.6901 11.293 11.2531 11.326 12.0311 11.326C12.9641 11.326 13.4311 11.286 13.5161 11.279V9.23599C16.5161 9.36899 18.7541 9.89299 18.7541 10.518ZM23.9441 11.064L12.1241 22.39C12.0906 22.4221 12.046 22.44 11.9996 22.44C11.9532 22.44 11.9086 22.4221 11.8751 22.39L0.0561291 11.064C0.0283933 11.0379 0.00973732 11.0037 0.00289834 10.9662C-0.00394065 10.9288 0.00139732 10.8902 0.0181291 10.856L4.39413 1.66399C4.40843 1.6329 4.43144 1.60662 4.46037 1.58834C4.4893 1.57006 4.52291 1.56056 4.55713 1.56099H19.4451C19.4788 1.56114 19.5118 1.57091 19.5401 1.58916C19.5685 1.6074 19.591 1.63337 19.6051 1.66399L23.9821 10.856C23.9989 10.8902 24.0042 10.9288 23.9974 10.9662C23.9905 11.0037 23.9719 11.0379 23.9441 11.064ZM19.4661 10.66C19.4661 9.85399 16.9141 9.17999 13.5191 9.02299V7.19499H17.7051V4.40499H6.30813V7.19499H10.4931V9.02399C7.09113 9.17999 4.53313 9.85399 4.53313 10.661C4.53313 11.469 7.09113 12.141 10.4931 12.299V18.161H13.5181V12.297C16.9121 12.14 19.4661 11.467 19.4661 10.66Z" fill="#DADADA"/>
</g>
<defs>
<clipPath id="clip0_2086_6349">
<rect width="24" height="24" fill="white"/>
</clipPath>
</defs>
</svg>
