<svg width="39" height="40" viewBox="0 0 39 40" fill="none" xmlns="http://www.w3.org/2000/svg">
<path d="M38.4688 12.05C36.5938 10.3188 34 7.67501 31.8875 5.80001L31.7625 5.71251C31.5545 5.5455 31.32 5.41452 31.0688 5.32501C25.975 4.37501 2.26875 -0.056238 1.80625 1.19922e-05C1.67666 0.018162 1.55278 0.0651486 1.44375 0.137512L1.325 0.231262C1.17878 0.379762 1.06772 0.559164 1 0.756262L0.96875 0.837512V1.28126V1.35001C3.6375 8.78126 14.175 33.125 16.25 38.8375C16.375 39.225 16.6125 39.9625 17.0563 40H17.1562C17.3938 40 18.4062 38.6625 18.4062 38.6625C18.4062 38.6625 36.5063 16.7125 38.3375 14.375C38.5745 14.0871 38.7838 13.7774 38.9625 13.45C39.0081 13.1939 38.9866 12.9303 38.9001 12.685C38.8135 12.4396 38.6649 12.2209 38.4688 12.05ZM23.05 14.6063L30.775 8.20001L35.3063 12.375L23.05 14.6063ZM20.05 14.1875L6.75 3.28751L28.2687 7.25626L20.05 14.1875ZM21.25 17.0438L34.8625 14.85L19.3 33.6L21.25 17.0438ZM4.94375 4.37501L18.9375 16.25L16.9125 33.6125L4.94375 4.37501Z" fill="#A9CFE7"/>
</svg>
