<svg width="18" height="14" viewBox="0 0 18 14" fill="none" xmlns="http://www.w3.org/2000/svg">
<path d="M17.3321 4.29216C17.3321 4.27552 17.3238 4.25884 17.3238 4.24216V1.79256C17.3238 0.984358 16.6655 0.334477 15.8657 0.334477H2.12618C1.93456 0.333992 1.74474 0.371375 1.56762 0.444478C1.3905 0.517582 1.22957 0.624965 1.09407 0.760457C0.958583 0.895949 0.8512 1.05688 0.778097 1.234C0.704993 1.41112 0.66761 1.60094 0.668095 1.79256V12.2076C0.668095 13.0075 1.31798 13.6657 2.12618 13.6657H15.8657C16.6655 13.6657 17.3238 13.0075 17.3238 12.2076V9.758C17.3238 9.74136 17.3321 9.72468 17.3321 9.708V4.29216ZM16.074 9.08308H12.3246C11.1747 9.08308 10.2416 8.14988 10.2416 7.00008C10.2416 5.85028 11.1748 4.91708 12.3246 4.91708H16.074V9.08308ZM15.8657 12.4159H2.12618C2.00954 12.4159 1.9179 12.3242 1.9179 12.2076V1.79256C1.9179 1.67592 2.00954 1.58428 2.12618 1.58428H15.8657C15.9823 1.58428 16.074 1.67592 16.074 1.79256V3.66728H12.3246C10.4915 3.66728 8.99178 5.15872 8.99178 7.00008C8.99178 8.84144 10.4832 10.3329 12.3246 10.3329H16.074V12.2076C16.074 12.3242 15.9823 12.4159 15.8657 12.4159Z" fill="#212121"/>
<path d="M11.508 7.00007C11.508 7.45831 11.883 7.83327 12.3412 7.83327C12.7995 7.83327 13.1744 7.45831 13.1744 7.00007C13.1744 6.54179 12.7995 6.16687 12.3412 6.16687H12.3329C11.8746 6.16687 11.508 6.54179 11.508 7.00007Z" fill="#212121"/>
</svg>
