<svg width="34" height="34" viewBox="0 0 34 34" fill="none" xmlns="http://www.w3.org/2000/svg">
<path d="M20.734 14.6001C20.2173 16.6667 17.0007 15.6167 16.0007 15.3334L16.9173 11.7001C17.9507 12.0001 21.2673 12.4334 20.734 14.6001ZM15.5507 17.2001L14.5507 21.2167C15.784 21.5334 19.6007 22.7501 20.1673 20.4834C20.7673 18.1167 16.784 17.5001 15.5507 17.2001ZM33.1673 21.0334C30.934 29.9667 21.9007 35.4001 12.9673 33.1667C4.03399 30.9334 -1.39435 21.9001 0.833987 12.9667C1.36339 10.8435 2.30587 8.84545 3.6076 7.08657C4.90933 5.32768 6.54481 3.84246 8.42062 2.71573C10.2964 1.58901 12.3758 0.842847 14.5401 0.519873C16.7043 0.1969 18.9109 0.303438 21.034 0.833403C29.9507 3.06674 35.384 12.1001 33.1673 21.0334ZM20.684 10.4167L21.434 7.41674L19.6007 7.00007L18.8673 9.8834C18.384 9.76674 17.9007 9.65007 17.4007 9.55007L18.134 6.60007L16.3173 6.16674L15.5673 9.15007C15.1673 9.05007 14.7673 8.96674 14.4007 8.86674L11.884 8.2334L11.384 10.1834C11.384 10.1834 12.7507 10.5001 12.7173 10.5167C13.4673 10.7001 13.6007 11.1667 13.5673 11.5834L11.5173 19.8001C11.434 20.0334 11.1673 20.3334 10.684 20.2501C10.7007 20.2667 9.35065 19.9167 9.35065 19.9167L8.45065 22.0001L10.8173 22.6001C11.2673 22.7167 11.7007 22.8334 12.134 22.9334L11.3673 25.9667L13.2007 26.4334L13.9507 23.4167C14.4507 23.5501 14.934 23.6667 15.4007 23.8001L14.6507 26.7834L16.484 27.2501L17.2507 24.2167C20.334 24.8001 22.7007 24.5667 23.6673 21.7501C24.5007 19.5001 23.6673 18.1667 22.0007 17.3167C23.2007 17.0001 24.1007 16.2501 24.3507 14.6167C24.684 12.4001 22.984 11.2167 20.684 10.4167Z" fill="#d9effd"/>
</svg>
