<svg width="156" height="156" viewBox="0 0 156 156" fill="none" xmlns="http://www.w3.org/2000/svg">
<g clip-path="url(#clip0_110_759)">
<path d="M78 0C34.9221 0 0 34.9221 0 78C0 121.08 34.9221 156 78 156C121.08 156 156 121.08 156 78C156 34.9221 121.08 0 78 0ZM78 146.404C40.3674 146.404 9.75 115.633 9.75 77.9997C9.75 40.3671 40.3674 9.7497 78 9.7497C115.633 9.7497 146.25 40.3673 146.25 77.9997C146.25 115.632 115.633 146.404 78 146.404ZM109.129 49.4593L63.3651 95.511L42.756 74.9019C40.8523 72.9983 37.7665 72.9983 35.8603 74.9019C33.9567 76.8056 33.9567 79.8915 35.8603 81.7952L59.9892 105.926C61.8928 107.828 64.9787 107.828 66.8848 105.926C67.1042 105.707 67.2921 105.468 67.4627 105.22L116.027 56.3548C117.929 54.4512 117.929 51.3653 116.027 49.4593C114.121 47.5556 111.035 47.5556 109.129 49.4593Z" fill="#C6B7EC"/>
</g>
<defs>
<clipPath id="clip0_110_759">
<rect width="156" height="156" fill="white"/>
</clipPath>
</defs>
</svg>
