<svg width="159" height="119" viewBox="0 0 159 119" fill="none" xmlns="http://www.w3.org/2000/svg">
  <path d="M139 117V23L126.586 33.4444L116.39 43.2745L107.702 48.4967H93.3357L83.5822 43.2745L72.4986 36.8801H61.8584L51.2181 40.8065L44.568 50.0327L40.1346 57.4052L31.5 68L17 92L2.5 117H139Z" fill="url(#paint0_linear_20_254)" fill-opacity="0.1" />
  <path d="M2.5 116.5L38.2626 57.9617L46.6951 45.9097C55.1201 33.8684 72.3 32.1793 82.9089 42.3493V42.3493C92.0577 51.1196 106.454 51.2487 115.759 42.6438L137 23" stroke="#6A12CB" stroke-width="3.1269" stroke-linecap="square" stroke-linejoin="round" />
  <g filter="url(#filter0_d_20_254)">
    <circle cx="137.472" cy="21.4721" r="5.47208" fill="#6A12CB" />
  </g>
  <defs>
    <filter id="filter0_d_20_254" x="116.365" y="0.365482" width="42.2132" height="42.2132" filterUnits="userSpaceOnUse" color-interpolation-filters="sRGB">
      <feFlood flood-opacity="0" result="BackgroundImageFix" />
      <feColorMatrix in="SourceAlpha" type="matrix" values="0 0 0 0 0 0 0 0 0 0 0 0 0 0 0 0 0 0 127 0" result="hardAlpha" />
      <feOffset />
      <feGaussianBlur stdDeviation="7.81726" />
      <feComposite in2="hardAlpha" operator="out" />
      <feColorMatrix type="matrix" values="0 0 0 0 0.415686 0 0 0 0 0.0705882 0 0 0 0 0.796078 0 0 0 1 0" />
      <feBlend mode="normal" in2="BackgroundImageFix" result="effect1_dropShadow_20_254" />
      <feBlend mode="normal" in="SourceGraphic" in2="effect1_dropShadow_20_254" result="shape" />
    </filter>
    <linearGradient id="paint0_linear_20_254" x1="76" y1="73.5" x2="82.6263" y2="115.966" gradientUnits="userSpaceOnUse">
      <stop stop-color="#6A12CB" />
      <stop offset="1" stop-color="#6A12CB" stop-opacity="0" />
    </linearGradient>
  </defs>
</svg>
