<?xml version="1.0" encoding="utf-8"?><svg viewBox="0 0 768 768" xmlns="http://www.w3.org/2000/svg" xmlns:xlink="http://www.w3.org/1999/xlink"><style>:root>svg{display:none}:root>svg:target{display:block}</style><svg viewBox="0 0 18 18" id="account" xmlns="http://www.w3.org/2000/svg"><path d="M10.225.668a.63.63 0 00-.625.625v6.482a.63.63 0 00.625.625h6.482a.63.63 0 00.625-.625c0-3.916-3.191-7.107-7.107-7.107zm.625 6.482V1.951c2.733.292 4.916 2.466 5.199 5.2h-5.2z"/><path d="M14.266 9.6H8.409V3.734a.63.63 0 00-.625-.625 7.122 7.122 0 00-7.116 7.116c0 3.916 3.191 7.107 7.107 7.107a7.113 7.113 0 007.107-7.107.612.612 0 00-.616-.625zm-6.49 6.482a5.866 5.866 0 01-5.858-5.857c0-3.016 2.3-5.516 5.232-5.824v5.824a.63.63 0 00.625.625H13.6a5.862 5.862 0 01-5.824 5.232z"/></svg><svg viewBox="0 0 14 18" id="apple" xmlns="http://www.w3.org/2000/svg"><path d="M11.63 16.59c-.9.87-1.88.733-2.824.32-1-.42-1.916-.44-2.97 0-1.32.57-2.017.404-2.805-.32C-1.443 11.98-.783 4.957 4.296 4.7c1.237.065 2.099.68 2.823.734 1.082-.22 2.118-.852 3.273-.77 1.384.11 2.429.66 3.116 1.65-2.86 1.714-2.181 5.482.44 6.536-.522 1.375-1.2 2.74-2.328 3.75l.01-.01zM7.026 4.646C6.89 2.602 8.55.915 10.456.75c.266 2.365-2.145 4.125-3.429 3.896z"/></svg><svg viewBox="0 0 10 7" id="arrow" xmlns="http://www.w3.org/2000/svg"><path d="M.227.97a.75.75 0 011.06 0L5 4.682 8.712.97a.75.75 0 011.061 1.06L5.53 6.273a.75.75 0 01-1.06 0L.227 2.03a.75.75 0 010-1.06z"/></svg><svg viewBox="0 0 34 34" id="bitcoin" xmlns="http://www.w3.org/2000/svg"><path d="M20.733 14.6c-.516 2.067-3.733 1.017-4.733.733l.917-3.633c1.033.3 4.35.733 3.816 2.9zm-5.183 2.6l-1 4.017c1.233.316 5.05 1.533 5.617-.734.6-2.366-3.384-2.983-4.617-3.283zm17.617 3.833C30.933 29.967 21.9 35.4 12.967 33.167 4.033 30.933-1.395 21.9.833 12.967A16.66 16.66 0 0121.033.833c8.917 2.234 14.35 11.267 12.134 20.2zM20.683 10.417l.75-3L19.6 7l-.733 2.883A37.79 37.79 0 0017.4 9.55l.733-2.95-1.816-.433-.75 2.983c-.4-.1-.8-.183-1.167-.283l-2.517-.634-.5 1.95s1.367.317 1.334.334c.75.183.883.65.85 1.066l-2.05 8.217c-.084.233-.35.533-.834.45.017.017-1.333-.333-1.333-.333L8.45 22l2.367.6c.45.117.883.233 1.316.333l-.766 3.034 1.833.466.75-3.016c.5.133.983.25 1.45.383l-.75 2.983 1.833.467.767-3.033c3.083.583 5.45.35 6.417-2.467.833-2.25 0-3.583-1.667-4.433 1.2-.317 2.1-1.067 2.35-2.7.333-2.217-1.367-3.4-3.667-4.2z"/></svg><svg viewBox="0 0 40 40" id="bnb" xmlns="http://www.w3.org/2000/svg"><path d="M27.707 23.2l4.53 4.527-12.255 12.255L7.727 27.728l4.528-4.528 7.727 7.767 7.725-7.767zm7.728-7.727L40 20l-4.525 4.527L30.947 20l4.488-4.527zm-15.453 0l4.526 4.487-4.528 4.528L15.453 20l4.529-4.527zm-15.455 0L9.017 20 4.53 24.487 0 20l4.527-4.527zM19.983.02l12.25 12.213-4.528 4.525-7.722-7.725-7.726 7.767-4.529-4.527L19.983.02z"/></svg><svg viewBox="0 0 15 18" id="copy" xmlns="http://www.w3.org/2000/svg"><path d="M15 6.45a1.09 1.09 0 00-.05-.225V6.15a.893.893 0 00-.158-.234l-5-5a.892.892 0 00-.234-.158.267.267 0 00-.075 0 .733.733 0 00-.275-.091H5.833a2.5 2.5 0 00-2.5 2.5V4H2.5A2.5 2.5 0 000 6.5v8.333a2.5 2.5 0 002.5 2.5h6.667a2.5 2.5 0 002.5-2.5V14h.833a2.5 2.5 0 002.5-2.5V6.45zm-5-2.942l2.158 2.159h-1.325A.833.833 0 0110 4.833V3.508zm0 11.325a.833.833 0 01-.833.833H2.5a.833.833 0 01-.833-.833V6.5a.833.833 0 01.833-.833h.833V11.5a2.5 2.5 0 002.5 2.5H10v.833zm3.333-3.333a.834.834 0 01-.833.833H5.833A.833.833 0 015 11.5V3.166a.833.833 0 01.833-.833h2.5v2.5a2.5 2.5 0 002.5 2.5h2.5V11.5z"/></svg><svg viewBox="0 0 16 13" id="email" xmlns="http://www.w3.org/2000/svg"><path d="M16 3.373V10.5a2.5 2.5 0 01-2.5 2.5h-11A2.5 2.5 0 010 10.5V3.373l7.746 4.558a.5.5 0 00.508 0L16 3.373zM13.5 0a2.5 2.5 0 012.485 2.223L8 6.92.015 2.223A2.5 2.5 0 012.5 0h11z"/></svg><svg viewBox="0 0 24 40" id="ethereum" xmlns="http://www.w3.org/2000/svg"><path d="M12 .354L.02 20.48 12 27.667l11.98-7.188L12 .354zM.02 22.875L12 39.645l11.98-16.77L12 30.063.02 22.875z"/></svg><svg viewBox="0 0 768 768" id="eye" xmlns="http://www.w3.org/2000/svg"><path d="M3.392 369.696c-4.352 8.768-4.672 19.296 0 28.608 0 0 12.672 25.248 35.84 58.976 14.432 20.992 33.216 45.824 56.224 70.976 28.608 31.328 64.128 63.584 106.208 89.6C252.704 649.408 313.856 672 384 672s131.296-22.592 182.336-54.144c42.08-26.016 77.6-58.272 106.208-89.6 22.976-25.152 41.792-49.984 56.224-70.976 23.168-33.728 35.84-58.976 35.84-58.976 4.352-8.768 4.672-19.296 0-28.608 0 0-12.672-25.248-35.84-58.976-14.432-20.992-33.216-45.824-56.224-70.976-28.608-31.328-64.128-63.584-106.208-89.6C515.296 118.592 454.144 96 384 96s-131.296 22.592-182.336 54.144c-42.08 26.016-77.6 58.272-106.208 89.6-23.008 25.152-41.792 49.952-56.224 70.976-23.168 33.728-35.84 58.976-35.84 58.976zM68.48 384c5.216-8.992 13.024-21.792 23.488-37.056 13.12-19.072 30.08-41.472 50.72-64.032 25.76-28.192 56.8-56.192 92.608-78.336C278.496 177.888 328.128 160 384 160s105.504 17.888 148.672 44.576c35.808 22.144 66.848 50.144 92.608 78.336 20.608 22.56 37.6 44.96 50.72 64.032 10.496 15.264 18.304 28.032 23.488 37.056-5.216 8.992-13.024 21.792-23.488 37.056-13.12 19.072-30.08 41.472-50.72 64.032-25.76 28.192-56.8 56.192-92.608 78.336C489.504 590.112 439.872 608 384 608s-105.504-17.888-148.672-44.576c-35.808-22.144-66.848-50.144-92.608-78.336-20.608-22.56-37.6-44.96-50.72-64.032C81.504 405.792 73.696 392.992 68.48 384zM512 384c0-35.328-14.368-67.392-37.504-90.496S419.328 256 384 256s-67.392 14.368-90.496 37.504S256 348.672 256 384s14.368 67.392 37.504 90.496S348.672 512 384 512s67.392-14.368 90.496-37.504S512 419.328 512 384zm-64 0c0 17.696-7.136 33.632-18.752 45.248S401.696 448 384 448s-33.632-7.136-45.248-18.752S320 401.696 320 384s7.136-33.632 18.752-45.248S366.304 320 384 320s33.632 7.136 45.248 18.752S448 366.304 448 384z"/></svg><svg viewBox="0 0 768 768" id="eye-off" xmlns="http://www.w3.org/2000/svg"><path d="M324.096 166.848c20.832-4.864 41.472-7.072 59.52-6.848 56.256 0 105.888 17.888 149.056 44.576 35.808 22.144 66.848 50.144 92.608 78.336 20.608 22.56 37.6 44.96 50.72 64.032 10.464 15.2 18.24 27.968 23.456 36.96-17.472 30.496-37.12 58.272-56.896 81.344-11.488 13.408-9.952 33.632 3.456 45.12s33.632 9.952 45.12-3.456c26.176-30.528 51.552-67.584 73.056-107.84 4.736-8.928 5.216-19.776.416-29.408 0 0-12.672-25.248-35.84-58.976-14.432-20.992-33.216-45.824-56.224-70.976-28.608-31.328-64.128-63.584-106.208-89.6C515.296 118.592 454.144 96 384.384 96c-23.488-.288-49.28 2.528-74.88 8.512-17.216 4.032-27.904 21.248-23.872 38.464s21.248 27.904 38.464 23.872zm-3.232 199.296l80.992 80.992c-5.824 1.952-11.904 3.008-18.016 3.232-16.416.576-32.96-5.088-45.888-17.152s-19.744-28.16-20.32-44.576c-.256-7.616.8-15.232 3.232-22.528zm-129.408-129.44l81.696 81.696c-13.888 22.112-20.352 47.488-19.456 72.512 1.152 32.704 14.816 65.056 40.672 89.12s59.072 35.424 91.776 34.272c22.144-.768 44.128-7.296 63.488-19.456l74.304 74.304C479.84 594.72 431.296 607.424 383.648 608c-55.488 0-105.12-17.888-148.288-44.576-35.808-22.144-66.848-50.144-92.608-78.336-20.608-22.56-37.6-44.96-50.72-64.032-10.432-15.2-18.24-27.936-23.424-36.928C102.208 325.824 144.64 276 191.52 236.704zM9.376 54.624l136.672 136.672C90.656 238.624 41.44 298.752 3.808 368.864c-4.736 8.928-5.248 19.808-.416 29.44 0 0 12.672 25.248 35.84 58.976 14.432 20.992 33.216 45.824 56.224 70.976 28.608 31.328 64.128 63.584 106.208 89.6C252.704 649.408 313.856 672 384.384 672c63.776-.768 128.608-19.232 186.08-56.288l142.912 142.912c12.512 12.512 32.768 12.512 45.248 0s12.512-32.768 0-45.248L474.592 429.344l-.224-.224L339.68 294.4c-.256-.224-.512-.512-.768-.768L54.624 9.376c-12.512-12.512-32.768-12.512-45.248 0s-12.512 32.768 0 45.248z"/></svg><svg viewBox="0 0 10 18" id="facebook" xmlns="http://www.w3.org/2000/svg"><path d="M6.667 10.25H8.75l.833-3.333H6.667V5.25c0-.858 0-1.667 1.666-1.667h1.25v-2.8a23.472 23.472 0 00-2.38-.116c-2.263 0-3.87 1.38-3.87 3.916v2.334h-2.5v3.333h2.5v7.083h3.334V10.25z"/></svg><svg viewBox="0 0 16 16" id="faq" xmlns="http://www.w3.org/2000/svg"><path d="M14.068 15.527H1.958c-.804 0-1.46-.654-1.46-1.459V1.958A1.463 1.463 0 011.959.5h12.11c.804 0 1.46.655 1.46 1.46v12.109c0 .805-.656 1.46-1.46 1.46zM1.958 1.751a.208.208 0 00-.207.208v12.109a.207.207 0 00.207.207h12.11a.207.207 0 00.207-.207V1.958a.207.207 0 00-.207-.207H1.958z"/><path d="M8 10.084a.625.625 0 01-.626-.626v-.001c0-.962.529-1.86 1.414-2.401.583-.357.846-1.026.671-1.705a1.496 1.496 0 00-1.046-1.046 1.519 1.519 0 00-1.926 1.459.626.626 0 11-1.252 0c0-.862.391-1.659 1.073-2.187a2.782 2.782 0 012.419-.484 2.745 2.745 0 011.944 1.945 2.777 2.777 0 01-1.23 3.086c-.51.312-.815.81-.815 1.333 0 .346-.28.627-.626.627zm0 2.903a.775.775 0 01-.238-.036.844.844 0 01-.282-.15.782.782 0 01-.203-.248.892.892 0 01-.093-.306.907.907 0 01.012-.24.91.91 0 01.081-.227.783.783 0 01.337-.337.85.85 0 01.305-.092.776.776 0 01.319.031.706.706 0 01.148.062.845.845 0 01.248.203.776.776 0 01.15.281.888.888 0 01.036.239.777.777 0 01-.036.238.885.885 0 01-.061.148.773.773 0 01-.203.248.845.845 0 01-.44.181.781.781 0 01-.08.005z"/></svg><svg viewBox="0 0 16 16" id="google" xmlns="http://www.w3.org/2000/svg"><path fill-rule="evenodd" clip-rule="evenodd" d="M8 2.583a5.417 5.417 0 105.272 6.667H8.833a1.25 1.25 0 010-2.5h5.834A1.25 1.25 0 0115.917 8a7.916 7.916 0 11-2.335-5.613 1.25 1.25 0 11-1.763 1.772A5.396 5.396 0 008 2.583z"/></svg><svg viewBox="0 0 16 15" id="investments" xmlns="http://www.w3.org/2000/svg"><path d="M4.042 14.499H1.126a.63.63 0 01-.625-.625v-6.25c0-.349.284-.624.625-.624h2.916c.342 0 .625.275.625.625v6.249a.63.63 0 01-.625.625zm-2.29-1.25h1.665v-5H1.751v5zm13.122 1.25h-2.916a.63.63 0 01-.625-.625V4.292a.63.63 0 01.625-.625h2.916a.63.63 0 01.625.625v9.582a.63.63 0 01-.625.625zm-2.291-1.25h1.666V4.917h-1.666v8.332zM9.458 14.5H6.542a.63.63 0 01-.625-.625V.959a.63.63 0 01.625-.625h2.916a.63.63 0 01.625.625v12.915a.63.63 0 01-.625.625zm-2.291-1.25h1.666V1.584H7.167V13.25z"/></svg><svg viewBox="0 0 16 18" id="name" xmlns="http://www.w3.org/2000/svg"><path d="M8 .75a3.75 3.75 0 100 7.5 3.75 3.75 0 000-7.5zm-4 9.5A3.75 3.75 0 00.25 14v1.188c0 .754.546 1.396 1.29 1.517 4.278.699 8.642.699 12.92 0a1.537 1.537 0 001.29-1.517V14A3.75 3.75 0 0012 10.25h-.34c-.185 0-.369.03-.544.086l-.866.283a7.251 7.251 0 01-4.5 0l-.866-.283a1.75 1.75 0 00-.543-.086H4z"/></svg><svg viewBox="0 0 24 24" id="network" xmlns="http://www.w3.org/2000/svg"><g clip-path="url(#apa)"><path d="M18.754 10.518c0 .625-2.238 1.148-5.238 1.28l.002.001c-.5.027-1 .038-1.5.033-.779 0-1.33-.023-1.524-.032-3.006-.133-5.25-.656-5.25-1.282s2.244-1.15 5.25-1.284v2.044c.196.015.759.048 1.537.048.933 0 1.4-.04 1.485-.047V9.236c3 .133 5.238.657 5.238 1.282zm5.19.546L12.124 22.39a.18.18 0 01-.249 0L.056 11.064a.178.178 0 01-.038-.208l4.376-9.192a.177.177 0 01.163-.103h14.888a.177.177 0 01.16.103l4.377 9.192a.178.178 0 01-.038.208zm-4.478-.404c0-.806-2.552-1.48-5.947-1.637V7.195h4.186v-2.79H6.308v2.79h4.185v1.83c-3.402.155-5.96.83-5.96 1.636 0 .808 2.558 1.48 5.96 1.638v5.862h3.025v-5.864c3.394-.157 5.948-.83 5.948-1.637z"/></g><defs><clipPath id="apa"><path d="M0 0h24v24H0z"/></clipPath></defs></svg><svg viewBox="0 0 16 20" id="notification" xmlns="http://www.w3.org/2000/svg"><path d="M5.001 15.087V17c0 1.65 1.35 3 2.999 3 1.65 0 3-1.35 3-3v-1.912H5.001zM9.5 17c0 .83-.67 1.5-1.5 1.5s-1.5-.67-1.5-1.5l.001-1.456h3L9.5 17z"/><path d="M14.129 11.34c-.08-.18-.13-.37-.13-.56V8c0-3.05-2.29-5.579-5.25-5.949v-1.3c0-.41-.34-.75-.75-.75s-.75.34-.75.75v1.3a6.004 6.004 0 00-5.248 5.95v2.779c0 .19-.05.39-.13.56L.08 14.92c-.12.23-.1.51.03.73.14.22.38.35.64.35h14.498c.26 0 .5-.13.64-.36.14-.22.15-.5.03-.73l-1.79-3.57zM1.96 14.5l1.25-2.49c.19-.382.29-.803.29-1.23V8c0-2.48 2.02-4.499 4.5-4.499s4.5 2.02 4.5 4.5v2.779c0 .42.1.85.289 1.23l1.25 2.49H1.96z"/></svg><svg viewBox="0 0 18 17" id="partners" xmlns="http://www.w3.org/2000/svg"><path d="M14.417 5.917h-1.794a2.168 2.168 0 01-2.166-2.165V2.664c0-1.194.972-2.165 2.165-2.165h.256c1.194 0 2.165.971 2.165 2.165V5.29c0 .346-.28.626-.626.626zm-1.794-4.166a.914.914 0 00-.913.913v1.088c0 .504.409.913.912.913h1.169V2.664a.914.914 0 00-.913-.913h-.255zM6.708 5.917H4.914A2.168 2.168 0 012.75 3.752V2.664c0-1.194.97-2.165 2.164-2.165h.255c1.194 0 2.165.971 2.165 2.165V5.29c0 .346-.28.626-.626.626zM4.914 1.751a.914.914 0 00-.913.913v1.088c0 .504.41.913.913.913h1.168V2.664a.914.914 0 00-.913-.913h-.255zm5.753 9.583H8.873A2.167 2.167 0 016.707 9.17V8.081c0-1.194.972-2.166 2.166-2.166h.255c1.194 0 2.165.972 2.165 2.166v2.627c0 .346-.28.626-.626.626zM8.873 7.167a.914.914 0 00-.914.914v1.088c0 .504.41.913.914.913h1.168V8.081a.914.914 0 00-.913-.914h-.255zm4.502 9.167h-8.75A.626.626 0 014 15.708v-.417a3.13 3.13 0 013.126-3.126h3.75a3.13 3.13 0 013.126 3.126v.417c0 .346-.28.626-.626.626zm-8.112-1.252h7.475a1.877 1.877 0 00-1.863-1.665h-3.75c-.962 0-1.758.73-1.862 1.665zm-.221-4.165h-3.75a.626.626 0 01-.626-.626v-.416a3.13 3.13 0 013.126-3.126h1.25a.626.626 0 110 1.252h-1.25c-.963 0-1.758.73-1.863 1.665h3.113a.626.626 0 110 1.252zm11.667 0h-3.75a.626.626 0 110-1.252h3.112a1.877 1.877 0 00-1.863-1.664h-1.25a.626.626 0 110-1.252h1.25a3.13 3.13 0 013.126 3.126v.416c0 .346-.28.626-.625.626z"/></svg><svg viewBox="0 0 16 20" id="password" xmlns="http://www.w3.org/2000/svg"><path d="M12.583 7.25V5.417C12.583 2.85 10.567.833 8 .833S3.417 2.85 3.417 5.417V7.25C1.858 7.25.667 8.442.667 10v6.417c0 1.558 1.191 2.75 2.75 2.75h9.166c1.559 0 2.75-1.192 2.75-2.75V10c0-1.558-1.191-2.75-2.75-2.75zM5.25 5.417c0-1.558 1.192-2.75 2.75-2.75s2.75 1.192 2.75 2.75V7.25h-5.5V5.417z"/></svg><svg viewBox="0 0 16 16" id="performance" xmlns="http://www.w3.org/2000/svg"><path d="M14.877 14.284l-13.75-.035a.627.627 0 00-.004 1.252l13.75.035h.002a.626.626 0 00.002-1.252zm-.002-2.535H1.125a.626.626 0 100 1.252h13.75a.626.626 0 100-1.252zM8 3a2.504 2.504 0 00-2.501 2.5 2.504 2.504 0 002.5 2.502A2.504 2.504 0 0010.502 5.5 2.504 2.504 0 008 2.999zm0 3.75A1.25 1.25 0 016.75 5.5a1.25 1.25 0 012.498 0A1.25 1.25 0 018 6.75z"/><path d="M14.875.499H1.125a.626.626 0 00-.626.626v8.75c0 .346.28.626.626.626h13.75c.346 0 .626-.28.626-.626v-8.75a.626.626 0 00-.626-.626zM2.938 9.249a1.715 1.715 0 00-1.187-1.187V2.893c.532-.189.953-.61 1.142-1.142h10.169c.16.574.613 1.027 1.187 1.187v5.124a1.715 1.715 0 00-1.187 1.187H2.938z"/></svg><svg viewBox="0 0 18 11" id="ranking" xmlns="http://www.w3.org/2000/svg"><path d="M17.211.382l.02.026.015.027.016.026.013.027.013.028.01.028.01.03.007.028.008.032.004.03.004.03.002.037.001.022v4.584a.626.626 0 01-1.252 0v-3.09l-5.878 5.785a.626.626 0 01-.878 0L6.82 5.566l-5.09 5.009a.626.626 0 01-.879-.893l5.53-5.44a.626.626 0 01.878 0l2.505 2.466 5.415-5.329h-3.055a.626.626 0 110-1.252h4.585c.02 0 .04.002.061.004.01 0 .02.002.03.004l.031.005.034.008.026.007.032.01.026.01.028.014.028.013.026.016.027.016a.628.628 0 01.095.079l.002.001.014.016.025.029.017.023z"/></svg><svg viewBox="0 0 18 18" id="search" xmlns="http://www.w3.org/2000/svg"><path d="M17.706 16.143l-3.76-3.759A7.695 7.695 0 0015.5 7.75c0-4.272-3.476-7.749-7.749-7.749S.001 3.478.001 7.751c0 4.272 3.477 7.748 7.75 7.748a7.701 7.701 0 004.802-1.68l3.739 3.738a.998.998 0 001.414 0 .999.999 0 000-1.414zM1.5 7.75a6.256 6.256 0 016.25-6.249 6.256 6.256 0 016.248 6.25 6.256 6.256 0 01-6.249 6.248A6.256 6.256 0 011.501 7.75z"/></svg><svg viewBox="0 0 12 7" id="select" xmlns="http://www.w3.org/2000/svg"><path d="M5.318 5.98a1 1 0 001.364 0l4.39-4.095c.664-.62.226-1.731-.682-1.731H1.61C.702.154.264 1.266.928 1.885l4.39 4.094z"/></svg><svg viewBox="0 0 18 18" id="settings" xmlns="http://www.w3.org/2000/svg"><path d="M7.542.675h2.916c.575 0 1.043.468 1.043 1.043v1.115a6.214 6.214 0 011.594.929l.966-.56a1.047 1.047 0 011.43.375l1.46 2.527.008.015a1.043 1.043 0 01-.402 1.41l-.953.551a6.668 6.668 0 010 1.858l.954.55a1.043 1.043 0 01.393 1.426l-1.459 2.525c-.142.244-.37.416-.64.486s-.552.032-.792-.109l-.965-.56a6.212 6.212 0 01-1.594.93V16.3c0 .575-.468 1.042-1.043 1.042H7.542A1.044 1.044 0 016.499 16.3v-1.116a6.212 6.212 0 01-1.594-.928l-.966.56c-.497.29-1.14.122-1.43-.376l-1.46-2.527a1.044 1.044 0 01.393-1.425l.954-.551a6.578 6.578 0 01-.064-.929c0-.32.022-.631.064-.929l-.953-.55a1.043 1.043 0 01-.393-1.426L2.508 3.58c.292-.5.934-.668 1.432-.377l.965.56a6.214 6.214 0 011.595-.93V1.718c0-.575.468-1.043 1.043-1.043zm2.707 1.252H7.751v1.349a.626.626 0 01-.44.598 4.99 4.99 0 00-1.912 1.113.626.626 0 01-.738.08l-1.173-.68L2.24 6.545l1.164.672a.626.626 0 01.297.682c-.078.34-.118.714-.118 1.11 0 .396.04.77.118 1.11a.626.626 0 01-.297.682l-1.164.672 1.247 2.159 1.173-.681a.626.626 0 01.738.08 4.995 4.995 0 001.911 1.113.626.626 0 01.441.598v1.35h2.498v-1.35c0-.274.179-.517.441-.598a4.994 4.994 0 001.912-1.113.626.626 0 01.737-.08l1.173.68 1.247-2.158-1.164-.672a.625.625 0 01-.297-.682 4.98 4.98 0 00.118-1.11c0-.396-.04-.77-.118-1.11a.626.626 0 01.297-.682l1.164-.672-1.247-2.158-1.173.68a.626.626 0 01-.738-.08 4.996 4.996 0 00-1.91-1.113.626.626 0 01-.442-.598v-1.35zM3.31 13.735h.001zM9 5.675a3.423 3.423 0 01.878.117c.203.06.505.16.79.336a3.21 3.21 0 011.213 1.212 3.297 3.297 0 01.342.812c.074.286.111.574.111.857a3.42 3.42 0 01-.117.878 3.3 3.3 0 01-.336.79 3.208 3.208 0 01-1.212 1.213 3.292 3.292 0 01-.812.342 3.421 3.421 0 01-.857.112 3.42 3.42 0 01-.878-.118 3.296 3.296 0 01-.79-.336 3.208 3.208 0 01-1.213-1.212 3.295 3.295 0 01-.341-.812 3.418 3.418 0 01-.112-.857 3.417 3.417 0 01.117-.878c.06-.203.16-.505.336-.79a3.208 3.208 0 011.212-1.212 3.298 3.298 0 01.812-.343c.286-.074.574-.111.857-.111zm.533 1.32A2.166 2.166 0 009 6.928a1.991 1.991 0 00-1.044.287 1.956 1.956 0 00-.767.777 1.99 1.99 0 00-.271 1.018 1.99 1.99 0 00.287 1.044 1.956 1.956 0 00.777.767 1.992 1.992 0 001.018.27 1.992 1.992 0 001.044-.287 1.955 1.955 0 00.767-.777 1.99 1.99 0 00.271-1.018 1.99 1.99 0 00-.287-1.044 1.956 1.956 0 00-.777-.767 1.99 1.99 0 00-.485-.202z"/></svg><svg viewBox="0 0 39 40" id="trc" xmlns="http://www.w3.org/2000/svg"><path d="M38.469 12.05C36.594 10.319 34 7.675 31.887 5.8l-.125-.087a2.389 2.389 0 00-.693-.388C25.975 4.375 2.269-.056 1.806 0a.875.875 0 00-.362.138L1.325.23A1.394 1.394 0 001 .756L.969.838v.512C3.638 8.781 14.175 33.125 16.25 38.838c.125.387.363 1.124.806 1.162h.1c.238 0 1.25-1.337 1.25-1.337s18.1-21.95 19.931-24.288c.237-.288.447-.598.625-.925a1.506 1.506 0 00-.493-1.4zM23.05 14.606L30.775 8.2l4.531 4.175-12.256 2.231zm-3-.418l-13.3-10.9 21.519 3.968-8.219 6.931zm1.2 2.856l13.612-2.194L19.3 33.6l1.95-16.556zM4.944 4.375L18.938 16.25l-2.025 17.362L4.943 4.375z"/></svg><svg viewBox="0 0 39 40" id="tron" xmlns="http://www.w3.org/2000/svg"><path d="M38.469 12.05C36.594 10.319 34 7.675 31.887 5.8l-.125-.087a2.389 2.389 0 00-.693-.388C25.975 4.375 2.269-.056 1.806 0a.875.875 0 00-.362.138L1.325.23A1.394 1.394 0 001 .756L.969.838v.512C3.638 8.781 14.175 33.125 16.25 38.838c.125.387.363 1.124.806 1.162h.1c.238 0 1.25-1.337 1.25-1.337s18.1-21.95 19.931-24.288c.237-.288.447-.598.625-.925a1.506 1.506 0 00-.493-1.4zM23.05 14.606L30.775 8.2l4.531 4.175-12.256 2.231zm-3-.418l-13.3-10.9 21.519 3.968-8.219 6.931zm1.2 2.856l13.612-2.194L19.3 33.6l1.95-16.556zM4.944 4.375L18.938 16.25l-2.025 17.362L4.943 4.375z"/></svg><svg viewBox="0 0 18 14" id="wallets" xmlns="http://www.w3.org/2000/svg"><path d="M17.332 4.292c0-.016-.008-.033-.008-.05v-2.45A1.46 1.46 0 0015.866.335H2.126A1.454 1.454 0 00.668 1.793v10.415c0 .8.65 1.458 1.458 1.458h13.74c.8 0 1.458-.659 1.458-1.458v-2.45c0-.017.008-.033.008-.05V4.292zm-1.258 4.791h-3.75a2.084 2.084 0 010-4.166h3.75v4.166zm-.208 3.333H2.126a.206.206 0 01-.208-.208V1.793c0-.117.092-.209.208-.209h13.74c.116 0 .208.092.208.209v1.874h-3.75a3.332 3.332 0 100 6.666h3.75v1.875a.206.206 0 01-.208.208z"/><path d="M11.508 7c0 .458.375.833.833.833A.836.836 0 0013.174 7a.836.836 0 00-.833-.833h-.008a.829.829 0 00-.825.833z"/></svg></svg>